# AST/ASF file generated using VICON BodyLanguage
# -----------------------------------------------
:version 1.10
:name VICON
:units
  mass 1.0
  length 0.45
  angle deg
:documentation
   .ast/.asf automatically generated from VICON data using
   VICON BodyBuilder and BodyLanguage model FoxedUp or BRILLIANT.MOD
:root
   order TX TY TZ RX RY RZ
   axis XYZ
   position 0 0 0  
   orientation 0 0 0 
:bonedata
  begin
     id 1 
     name lhipjoint
     direction 0.671379 -0.66392 0.329334 
     length 2.38647 
     axis 0 0 0  XYZ
  end
  begin
     id 2 
     name lfemur
     direction 0.34202 -0.939693 0  
     length 6.48179  
     axis 0 0 20  XYZ
    dof rx ry rz
    limits (-160.0 20.0)
           (-70.0 70.0)
           (-60.0 70.0)
  end
  begin
     id 3 
     name ltibia
     direction 0.34202 -0.939693 0   
     length 6.86524   
     axis 0 0 20   XYZ
    dof rx
    limits (-10.0 170.0)
  end
  begin
     id 4 
     name lfoot
     direction 0.204886 -0.562919 0.800715   
     length 1.73031   
     axis -90 7.62852e-016 20   XYZ
    dof rx rz
    limits (-45.0 90.0)
           (-70.0 20.0)
  end
  begin
     id 5 
     name ltoes
     direction 1.53548e-011 -4.21841e-011 1   
     length 0.828161   
     axis -90 7.62852e-016 20   XYZ
    dof rx
    limits (-90.0 20.0)
  end
  begin
     id 6 
     name rhipjoint
     direction -0.662732 -0.670855 0.332775   
     length 2.3618  
     axis 0 0 0  XYZ 
  end
  begin
     id 7 
     name rfemur
     direction -0.34202 -0.939693 0   
     length 6.3025   
     axis 0 0 -20   XYZ
    dof rx ry rz
    limits (-160.0 20.0)
           (-70.0 70.0)
           (-70.0 60.0)
  end
  begin
     id 8 
     name rtibia
     direction -0.34202 -0.939693 0   
     length 6.8732   
     axis 0 0 -20   XYZ
    dof rx
    limits (-10.0 170.0)
 end
 begin
     id 9 
     name rfoot
     direction -0.173856 -0.477665 0.861168   
     length 1.54784  
     axis -90 -7.62852e-016 -20   XYZ
    dof rx rz
    limits (-45.0 90.0)
           (-20.0 70.0)
  end
  begin
     id 10 
     name rtoes
     direction -1.53562e-011 -4.21802e-011 1   
     length 0.759618   
     axis -90 -7.62852e-016 -20   XYZ
    dof rx
    limits (-90.0 20.0)
  end
  begin
     id 11 
     name lowerback
     direction -0.0278357 0.999497 -0.0151789   
     length 1.97203   
     axis 0 0 0   XYZ
    dof rx ry rz
    limits (-20.0 45.0)
           (-30.0 30.0)
           (-30.0 30.0)
  end
  begin
     id 12 
     name upperback
     direction -0.00360622 0.997542 0.0699804   
     length 1.94709   
     axis 0 0 0   XYZ
    dof rx ry rz
    limits (-20.0 45.0)
           (-30.0 30.0)
           (-30.0 30.0)
  end
  begin
     id 13 
     name thorax
     direction 0.00907706 0.997048 0.0762461   
     length 1.95722   
     axis 0 0 0   XYZ
    dof rx ry rz
    limits (-20.0 45.0)
           (-30.0 30.0)
           (-30.0 30.0)
  end
  begin
     id 14 
     name lowerneck
     direction -0.0481835 0.99872 -0.0153927   
     length 1.63078   
     axis 0 0 0   XYZ
    dof rx ry rz
    limits (-20.0 45.0)
           (-30.0 30.0)
           (-30.0 30.0)
  end
  begin
     id 15 
     name upperneck
     direction 0.0859716 0.979226 -0.183644   
     length 1.62591   
     axis 0 0 0   XYZ
    dof rx ry rz
    limits (-20.0 45.0)
           (-30.0 30.0)
           (-30.0 30.0)
  end
  begin
     id 16
     name head
     direction 0.0324821 0.997629 -0.0606773  
     length 1.64811  
     axis 0 0 0   XYZ
    dof rx ry rz
    limits (-20.0 45.0)
           (-30.0 30.0)
           (-30.0 30.0)
  end
  begin
     id 17 
     name lclavicle
     direction 0.939609 0.311019 0.142835  
     length 3.70647  
     axis 0 0 0   XYZ
    dof ry rz
    limits (-20.0 10.0)
           (0.0 20.0)
  end
  begin
     id 18 
     name lhumerus
     direction 1 -4.48963e-011 -1.59838e-027   
     length 4.59207   
     axis 180 -30 -90   XYZ
    dof rx ry rz
    limits (-60.0 90.0)
           (-90.0 90.0)
           (-90.0 90.0)
  end
  begin
     id 19
     name lradius
     direction 1 -4.48957e-011 -1.3483e-026   
     length 2.98109   
     axis 180 -30 -90   XYZ
    dof rx
    limits (-10.0 170.0)
  end
  begin
     id 20
     name lwrist
     direction 1 -4.48954e-011 -3.11579e-026   
     length 1.49055   
     axis 2.00652e-014 90 90   XYZ
    dof ry
    limits (-180.0 0.0)
 end
  begin
     id 21 
     name lhand
     direction 1 -4.4911e-011 -6.23158e-026   
     length 0.480203   
     axis 3.97628e-014 90 90   XYZ
    dof rx rz
    limits (-90.0 90.0)
           (-45.0 45.0)
  end
  begin
     id 22 
     name lfingers
     direction 1 -4.48893e-011 -1.24632e-025   
     length 0.387152   
     axis 7.95256e-014 90 90   XYZ
    dof rx
    limits (0.0 90.0)
  end
  begin
     id 23
     name lthumb
     direction 0.707107 -6.35013e-011 0.707107   
     length 0.555875   
     axis -90 45 2.85299e-015   XYZ
    dof rx rz
    limits (-45.0 45.0)
           (-45.0 45.0)
  end
  begin
     id 24 
     name rclavicle
     direction -0.950396 0.30392 0.0661859   
     length 3.70894  
     axis 0 0 0   XYZ 
    dof ry rz
    limits (-10.0 20.0)
           (-20.0 0.0)
  end
  begin
     id 25 
     name rhumerus
     direction -1 -4.48957e-011 -2.96677e-027  
     length 4.76508   
     axis 180 30 90   XYZ
    dof rx ry rz
    limits (-90.0 60.0)
           (-90.0 90.0)
           (-90.0 90.0)
  end
  begin
     id 26 
     name rradius
     direction -1 -4.48974e-011 -1.44501e-026   
     length 2.78902   
     axis 180 30 90   XYZ
    dof rx
    limits (-10.0 170.0)
  end
  begin
     id 27 
     name rwrist
     direction -1 -4.48978e-011 -3.11579e-026   
     length 1.39451   
     axis 2.00652e-014 -90 -90   XYZ
    dof ry
    limits (-180.0 0.0)
  end
  begin
     id 28
     name rhand
     direction -1 -4.48956e-011 -6.23158e-026   
     length 0.721303   
     axis 3.97628e-014 -90 -90   XYZ
    dof rx rz
    limits (-90.0 90.0)
           (-45.0 45.0)
  end
  begin
     id 29
     name rfingers
     direction -1 -4.4899e-011 -1.24632e-025   
     length 0.581533   
     axis 7.95256e-014 -90 -90   XYZ
    dof rx
    limits (0.0 90.0)
  end
  begin
     id 30
     name rthumb
     direction -0.707107 -6.34911e-011 0.707107   
     length 0.834968   
     axis -90 -45 -2.85299e-015   XYZ
    dof rx rz
    limits (-45.0 45.0)
           (-45.0 45.0)
  end
:hierarchy
  begin
    root lhipjoint rhipjoint lowerback
    lhipjoint lfemur
    lfemur ltibia
    ltibia lfoot
    lfoot ltoes
    rhipjoint rfemur
    rfemur rtibia
    rtibia rfoot
    rfoot rtoes
    lowerback upperback
    upperback thorax
    thorax lowerneck lclavicle rclavicle
    lowerneck upperneck
    upperneck head
    lclavicle lhumerus
    lhumerus lradius
    lradius lwrist
    lwrist lhand lthumb
    lhand lfingers
    rclavicle rhumerus
    rhumerus rradius
    rradius rwrist
    rwrist rhand rthumb
    rhand rfingers
  end

#!OML:ASF I:\salsa\salsa 7_09\Patient 1\Session 1\dancerfemale.ASF
:FULLY-SPECIFIED
:DEGREES
487
root 14.5291 15.5557 0.43098 -363.627 -103.643 356.641
lowerback 8.29339 2.98224 -1.24386
upperback -2.60415 4.01821 2.65215
thorax -7.68642 2.08626 2.8964
lowerneck -3.74334 -2.8384 -9.27915
upperneck 16.78 -4.35087 6.23634
head 6.01256 -2.40072 3.22623
rclavicle -1.64991e-014 2.38542e-015
rhumerus -27.8481 16.2722 -100.937
rradius 68.1352
rwrist 0.480819
rhand -0.621658 58.4203
rfingers 7.12502
rthumb 24.9948 30.0354
lclavicle -1.64991e-014 2.38542e-015
lhumerus -29.5314 6.3317 86.9408
lradius 124.305
lwrist -24.8291
lhand -16.6708 34.4442
lfingers 7.12502
lthumb 9.55293 64.2076
rfemur -25.6043 -13.8217 19.0431
rtibia 62.1149
rfoot -8.45604 -4.03668
rtoes -25.2989
lfemur -10.7058 -3.71939 -26.7035
ltibia 45.8715
lfoot -26.8609 12.6253
ltoes -16.5607
488
root 14.6046 15.475 0.454236 -359.923 -102.881 353.12
lowerback 8.5825 2.76335 -1.82082
upperback -2.53144 3.63838 2.27105
thorax -7.76076 1.92035 2.86514
lowerneck -3.60664 -2.87232 -9.31957
upperneck 16.0765 -4.39845 6.5361
head 5.77813 -2.39195 3.32507
rclavicle 1.64991e-014 -1.35174e-014
rhumerus -29.6288 15.0885 -100.732
rradius 68.5559
rwrist -3.38279
rhand -1.49762 58.5374
rfingers 7.12502
rthumb 24.1552 30.0382
lclavicle 1.64991e-014 -1.35174e-014
lhumerus -28.0885 5.78098 88.8949
lradius 124.163
lwrist -24.9634
lhand -17.3051 34.2719
lfingers 7.12502
lthumb 8.94097 64.0625
rfemur -27.7058 -14.7675 18.2347
rtibia 64.9151
rfoot -8.91492 -4.89886
rtoes -24.7043
lfemur -11.8867 -3.67726 -27.452
ltibia 46.562
lfoot -26.6387 11.7914
ltoes -16.07
489
root 14.6642 15.4064 0.469866 -354.597 -102.384 347.949
lowerback 8.52559 2.64393 -2.56521
upperback -2.37118 3.36046 1.70991
thorax -7.54554 1.8038 2.73878
lowerneck -3.32629 -3.0656 -8.8841
upperneck 15.3444 -4.63543 6.28976
head 5.50693 -2.48824 3.15977
rclavicle 1.38155e-014 -1.59028e-015
rhumerus -30.8656 13.7661 -100.309
rradius 69.1748
rwrist -7.35778
rhand -2.01077 57.175
rfingers 7.12502
rthumb 23.6631 28.6114
lclavicle 1.38155e-014 -1.59028e-015
lhumerus -26.6908 4.84773 90.5465
lradius 123.886
lwrist -25.1486
lhand -17.5202 33.7581
lfingers 7.12502
lthumb 8.73332 63.5574
rfemur -29.3672 -15.5448 17.0589
rtibia 67.3314
rfoot -9.60664 -7.34399
rtoes -25.1694
lfemur -12.9134 -3.44051 -28.5354
ltibia 47.1286
lfoot -26.3535 11.1737
ltoes -14.7275
490
root 14.721 15.3625 0.47829 -348.969 -101.787 342.576
lowerback 8.36297 2.44453 -3.24298
upperback -2.30688 2.9858 1.15139
thorax -7.36113 1.63537 2.59534
lowerneck -3.4571 -3.22231 -9.04792
upperneck 15.3168 -4.90295 6.82813
head 5.55664 -2.59057 3.33859
rclavicle 1.23246e-014 2.22639e-014
rhumerus -31.8627 13.0511 -99.8252
rradius 69.4005
rwrist -12.2064
rhand -2.61113 56.0719
rfingers 7.12502
rthumb 23.0871 27.4351
lclavicle 1.23246e-014 2.22639e-014
lhumerus -25.6006 3.81756 91.8668
lradius 123.504
lwrist -25.385
lhand -17.6322 33.0178
lfingers 7.12502
lthumb 8.62525 62.8216
rfemur -30.2128 -16.1789 15.6993
rtibia 69.5092
rfoot -11.3243 -10.4668
rtoes -25.242
lfemur -13.896 -3.4408 -29.5419
ltibia 47.563
lfoot -26.1622 10.6182
ltoes -13.9772
491
root 14.7775 15.3696 0.479304 -343.496 -100.914 337.471
lowerback 8.19764 2.13007 -3.70122
upperback -2.34133 2.48711 0.67699
thorax -7.26435 1.39881 2.43315
lowerneck -3.66049 -3.38151 -9.26899
upperneck 15.3879 -5.17023 7.3657
head 5.65318 -2.69565 3.52579
rclavicle 5.06901e-014 -8.34896e-015
rhumerus -33.5428 11.5921 -99.3362
rradius 70.7886
rwrist -16.2703
rhand -2.24927 54.6665
rfingers 7.12502
rthumb 23.4343 26.0735
lclavicle 5.06901e-014 -8.34896e-015
lhumerus -24.8105 2.64408 92.8388
lradius 123.133
lwrist -25.7222
lhand -17.9306 32.6999
lfingers 7.12502
lthumb 8.3373 62.5154
rfemur -30.4282 -16.8353 14.577
rtibia 71.2289
rfoot -11.733 -11.555
rtoes -27.3638
lfemur -14.7402 -3.70451 -30.2135
ltibia 47.7122
lfoot -25.7999 9.9697
ltoes -14.1993
492
root 14.8369 15.3348 0.471762 -338.304 -100.553 332.52
lowerback 8.09315 1.95315 -4.21333
upperback -2.28094 2.16935 0.251267
thorax -7.1203 1.25104 2.32377
lowerneck -4.06743 -3.49496 -9.74251
upperneck 15.4934 -5.34927 8.0227
head 5.79969 -2.7574 3.79689
rclavicle 3.86636e-014 1.19271e-015
rhumerus -35.2337 10.2293 -98.7046
rradius 72.5439
rwrist -19.0062
rhand -1.84643 53.4719
rfingers 7.12502
rthumb 23.8207 24.9287
lclavicle 3.86636e-014 1.19271e-015
lhumerus -24.1695 1.48994 93.4673
lradius 122.955
lwrist -26.0109
lhand -18.0833 32.3203
lfingers 7.12502
lthumb 8.18996 62.1416
rfemur -30.3488 -16.6616 13.3816
rtibia 72.9678
rfoot -11.6174 -10.5901
rtoes -25.6583
lfemur -15.4923 -3.74001 -30.881
ltibia 47.9055
lfoot -25.5987 9.37636
ltoes -13.669
493
root 14.9011 15.3012 0.460078 -334.881 -100.565 329.145
lowerback 8.19506 1.89152 -4.56922
upperback -2.1715 2.0175 -0.121443
thorax -7.05081 1.17843 2.15266
lowerneck -4.36322 -3.56257 -10.0097
upperneck 15.4714 -5.44623 8.43973
head 5.87021 -2.78303 3.96424
rclavicle -1.44119e-015 1.19271e-015
rhumerus -36.8084 8.79414 -97.9878
rradius 74.1354
rwrist -19.4533
rhand -1.88278 52.7808
rfingers 7.12502
rthumb 23.7858 24.2331
lclavicle -1.44119e-015 1.19271e-015
lhumerus -23.6526 0.422945 93.8313
lradius 122.914
lwrist -25.7627
lhand -18.3186 31.6634
lfingers 7.12502
lthumb 7.96289 61.4935
rfemur -29.6423 -15.8409 12.3018
rtibia 74.4107
rfoot -10.7906 -8.89311
rtoes -21.8752
lfemur -15.9254 -3.70971 -31.3614
ltibia 47.9927
lfoot -25.5998 8.93521
ltoes -12.2346
494
root 14.9679 15.2789 0.446356 -333.64 -100.372 327.881
lowerback 8.46513 1.8218 -4.37784
upperback -2.11004 1.9074 -0.451684
thorax -7.11256 1.10701 1.70793
lowerneck -4.45857 -3.66706 -9.97127
upperneck 15.3713 -5.60359 8.62339
head 5.87416 -2.84109 4.00324
rclavicle 4.09993e-014 -3.97569e-015
rhumerus -38.1565 7.22304 -97.1948
rradius 75.1512
rwrist -18.0287
rhand -2.42502 52.5987
rfingers 7.12502
rthumb 23.2657 23.9843
lclavicle 4.09993e-014 -3.97569e-015
lhumerus -23.2764 -0.705753 93.8302
lradius 122.873
lwrist -25.2304
lhand -19.0514 31.4575
lfingers 7.12502
lthumb 7.25557 61.3131
rfemur -28.28 -14.7744 11.7456
rtibia 75.4999
rfoot -10.0151 -7.73599
rtoes -22.1029
lfemur -16.2411 -3.66535 -31.3035
ltibia 48.0973
lfoot -25.3975 8.44981
ltoes -12.0697
495
root 15.0271 15.2849 0.434264 -331.734 -100.111 326.237
lowerback 8.36858 1.70603 -4.09676
upperback -2.10491 1.76122 -0.811672
thorax -7.01979 1.01198 1.1967
lowerneck -4.58671 -3.78778 -10.1032
upperneck 15.2535 -5.78279 8.94767
head 5.88935 -2.90898 4.1138
rclavicle -3.11346e-014 5.1684e-015
rhumerus -39.181 5.84387 -96.2993
rradius 75.6364
rwrist -16.5487
rhand -3.3567 52.8803
rfingers 7.12502
rthumb 22.3716 24.1556
lclavicle -3.11346e-014 5.1684e-015
lhumerus -22.9746 -1.57356 93.4492
lradius 122.947
lwrist -24.8426
lhand -19.6823 31.518
lfingers 7.12502
lthumb 6.6465 61.3937
rfemur -26.6514 -14.4673 11.0735
rtibia 76.0919
rfoot -8.83468 -6.87622
rtoes -20.8933
lfemur -16.7126 -3.49281 -31.2108
ltibia 47.9775
lfoot -25.0486 7.71606
ltoes -11.8399
496
root 15.0821 15.3077 0.415974 -328.935 -100.16 324.063
lowerback 7.81922 1.65621 -4.13315
upperback -2.20822 1.68656 -1.18333
thorax -6.80011 0.964354 0.851094
lowerneck -4.54026 -3.86847 -10.2912
upperneck 14.9566 -5.90251 9.27516
head 5.81497 -2.95418 4.24117
rclavicle -3.6303e-014 1.41137e-014
rhumerus -40.3291 4.62448 -95.3658
rradius 76.5237
rwrist -16.2211
rhand -3.86295 53.2232
rfingers 7.12502
rthumb 21.8856 24.4409
lclavicle -3.6303e-014 1.41137e-014
lhumerus -22.8252 -2.14583 92.803
lradius 123.186
lwrist -24.2827
lhand -20.0091 31.4981
lfingers 7.12502
lthumb 6.33104 61.3835
rfemur -25.0412 -13.8869 10.282
rtibia 76.23
rfoot -7.38076 -6.93867
rtoes -17.3025
lfemur -17.4643 -3.05284 -31.3025
ltibia 47.6462
lfoot -25.0065 7.05144
ltoes -10.568
